<svg xmlns="http://www.w3.org/2000/svg" viewBox="0 0 900 620"><rect width="900" height="620" fill="#e6f5ec"/><circle cx="720" cy="115" r="88" fill="#ffe48d"/><circle cx="130" cy="500" r="105" fill="#f7d7df"/><rect x="150" y="125" width="600" height="365" rx="34" fill="#fff" stroke="#47685a" stroke-width="10" transform="rotate(-2 450 305)"/><g stroke="#e98b5c" stroke-width="14" stroke-linecap="round"><path d="M205 210h490M205 275h490M205 340h490M205 405h490"/></g><g fill="#f4a46e" stroke="#47685a" stroke-width="7"><circle cx="320" cy="210" r="27"/><circle cx="410" cy="210" r="27"/><circle cx="560" cy="210" r="27"/><circle cx="280" cy="275" r="27"/><circle cx="470" cy="275" r="27"/><circle cx="590" cy="275" r="27"/><circle cx="350" cy="340" r="27"/><circle cx="440" cy="340" r="27"/><circle cx="650" cy="340" r="27"/><circle cx="290" cy="405" r="27"/><circle cx="530" cy="405" r="27"/></g><text x="95" y="100" font-family="sans-serif" font-size="44" font-weight="900" fill="#47685a">COUNT &amp; THINK</text><text x="585" y="550" font-family="sans-serif" font-size="24" font-weight="700" fill="#e98b5c">FOCUS / MEMORY / JUDGEMENT</text><path d="M730 365l35 35-35 35-35-35Z" fill="#df8797"/><path d="M115 260l16-32 16 32 32 16-32 16-16 32-16-32-32-16Z" fill="#ffe48d"/></svg>