<svg xmlns="http://www.w3.org/2000/svg" viewBox="0 0 420 320" fill="none"><rect width="420" height="320" rx="54" fill="#FFF4CE"/><path d="M105 238 250 74l54 48-145 164-63 17 9-65Z" fill="#F3A5B5" stroke="#47685A" stroke-width="8" stroke-linejoin="round"/><path d="m250 74 28-31 54 48-28 31-54-48Z" fill="#FFE48D" stroke="#47685A" stroke-width="8"/><path d="m105 238 63 48-63 17 9-65Z" fill="#F5CFAF" stroke="#47685A" stroke-width="8" stroke-linejoin="round"/><path d="m154 203 54 48" stroke="#47685A" stroke-width="8"/><path d="M63 89c22-19 48-24 72-14" stroke="#7CA493" stroke-width="8" stroke-linecap="round"/><path d="M55 119c13-8 28-11 43-9" stroke="#7CA493" stroke-width="7" stroke-linecap="round"/><circle cx="331" cy="225" r="33" fill="#DFF2E7" stroke="#47685A" stroke-width="7"/><path d="m317 226 10 10 20-25" stroke="#47685A" stroke-width="7" stroke-linecap="round" stroke-linejoin="round"/><text x="210" y="48" text-anchor="middle" fill="#47685A" font-family="sans-serif" font-size="18" font-weight="800" letter-spacing="4">LET'S TRY</text></svg>