<svg xmlns="http://www.w3.org/2000/svg" viewBox="0 0 420 320" fill="none"><rect width="420" height="320" rx="54" fill="#EAF6F7"/><path d="M75 101c54-31 105-25 135 1v145c-30-26-81-32-135-1V101Z" fill="#FFFDF7" stroke="#47685A" stroke-width="8" stroke-linejoin="round"/><path d="M345 101c-54-31-105-25-135 1v145c30-26 81-32 135-1V101Z" fill="#FFFDF7" stroke="#47685A" stroke-width="8" stroke-linejoin="round"/><path d="M210 103v144" stroke="#47685A" stroke-width="8"/><path d="M104 137c28-10 58-9 84 3M104 168c28-10 58-9 84 3M316 137c-28-10-58-9-84 3M316 168c-28-10-58-9-84 3" stroke="#8DB3A2" stroke-width="7" stroke-linecap="round"/><circle cx="83" cy="57" r="17" fill="#FFE48D"/><path d="m83 31 5 17 17 5-17 5-5 17-5-17-17-5 17-5 5-17Z" fill="#F3A5B5"/><path d="M338 236c22-18 39-18 57 0" stroke="#F3A5B5" stroke-width="8" stroke-linecap="round"/><text x="210" y="287" text-anchor="middle" fill="#47685A" font-family="sans-serif" font-size="17" font-weight="800" letter-spacing="4">READ · THINK · GROW</text></svg>