<svg xmlns="http://www.w3.org/2000/svg" viewBox="0 0 900 620"><rect width="900" height="620" fill="#fff8d8"/><circle cx="690" cy="130" r="90" fill="#f7cbd5"/><circle cx="150" cy="480" r="110" fill="#cfe9f2"/><path d="M150 410c55-90 190-120 270-35 65-105 245-95 300 20 44 92-28 165-112 165H255c-98 0-155-73-105-150Z" fill="#dff2e7"/><rect x="330" y="235" width="250" height="175" rx="18" fill="#fff" stroke="#47685a" stroke-width="8"/><path d="M350 275h210M350 315h160M350 355h195" stroke="#e98b5c" stroke-width="12" stroke-linecap="round"/><path d="M625 220l80 50-28 42-80-50Z" fill="#ffe48d" stroke="#47685a" stroke-width="8"/><path d="M650 205l20-28 18 12-20 30" fill="#df8797"/><circle cx="220" cy="285" r="55" fill="#f4cbd4" stroke="#47685a" stroke-width="8"/><path d="M175 330q45 45 90 0v80h-90Z" fill="#e98b5c" stroke="#47685a" stroke-width="8"/><circle cx="675" cy="360" r="50" fill="#ffe48d" stroke="#47685a" stroke-width="8"/><path d="M645 410q30 45 60 0v75h-60Z" fill="#cfe9f2" stroke="#47685a" stroke-width="8"/><text x="90" y="115" font-family="sans-serif" font-size="44" font-weight="900" fill="#47685a">LET'S TRY!</text><text x="92" y="155" font-family="sans-serif" font-size="20" font-weight="700" fill="#e98b5c">think · learn · smile</text><path d="M760 440l35 35-35 35-35-35Z" fill="#e98b5c"/><path d="M110 230l18-36 18 36 36 18-36 18-18 36-18-36-36-18Z" fill="#ffe48d"/></svg>